<svg id="visual" viewBox="0 0 1506 494" width="1506" height="494" xmlns="http://www.w3.org/2000/svg" xmlns:xlink="http://www.w3.org/1999/xlink" version="1.1"><rect x="0" y="0" width="1506" height="494" fill="#fff"></rect><path d="M0 324L27.8 333.5C55.7 343 111.3 362 167.2 362.2C223 362.3 279 343.7 334.8 345.7C390.7 347.7 446.3 370.3 502 367.8C557.7 365.3 613.3 337.7 669.2 330.8C725 324 781 338 836.8 347.8C892.7 357.7 948.3 363.3 1004 360.3C1059.7 357.3 1115.3 345.7 1171.2 343.5C1227 341.3 1283 348.7 1338.8 355.2C1394.7 361.7 1450.3 367.3 1478.2 370.2L1506 373L1506 495L1478.2 495C1450.3 495 1394.7 495 1338.8 495C1283 495 1227 495 1171.2 495C1115.3 495 1059.7 495 1004 495C948.3 495 892.7 495 836.8 495C781 495 725 495 669.2 495C613.3 495 557.7 495 502 495C446.3 495 390.7 495 334.8 495C279 495 223 495 167.2 495C111.3 495 55.7 495 27.8 495L0 495Z" fill="#0044fe" stroke-linecap="round" stroke-linejoin="miter"></path></svg>